<svg width="104" height="992" viewBox="0 0 104 992" fill="none" xmlns="http://www.w3.org/2000/svg">
<rect width="104" height="992" fill="#E7EEFF"/>
<mask id="path-1-inside-1_1_45" fill="white">
<path d="M28 12H76V60H28V12Z"/>
</mask>
<path d="M76 59H28V61H76V59Z" fill="#002B81" mask="url(#path-1-inside-1_1_45)"/>
<path fill-rule="evenodd" clip-rule="evenodd" d="M44.1746 40.4933L48.7434 45.0621C51.5238 47.8425 56.0316 47.8425 58.812 45.0621C59.7289 44.1452 60.3435 43.0403 60.6556 41.8715L63.8462 45.0621C66.6266 47.8425 71.1344 47.8425 73.9147 45.0621C76.6951 42.2818 76.6951 37.774 73.9147 34.9936L63.8462 24.9251C61.0659 22.1448 56.558 22.1448 53.7777 24.9251C52.8607 25.8421 52.2462 26.9469 51.9341 28.1157L48.7434 24.9251C45.9631 22.1448 41.4553 22.1448 38.6749 24.9251L30.3894 33.2107C27.2035 36.3965 27.2035 41.5617 30.3894 44.7475C33.5752 47.9333 38.7404 47.9333 41.9262 44.7475C43.1322 43.5415 43.8817 42.0519 44.1746 40.4933ZM46.2263 27.4422C44.8361 26.0521 42.5822 26.0521 41.192 27.4422C39.8025 28.8318 39.8019 31.0844 41.1903 32.4747L51.2606 42.545C52.6507 43.9352 54.9047 43.9352 56.2948 42.545C57.6843 41.1556 57.685 38.9033 56.297 37.513L46.2263 27.4422ZM39.4091 35.7278L36.1578 32.4765L32.9065 35.7278C31.1108 37.5234 31.1109 40.4347 32.9065 42.2304C34.7021 44.026 37.6134 44.026 39.4091 42.2304C41.2047 40.4347 41.2047 37.5234 39.4091 35.7278ZM56.2919 32.4735C54.9047 31.0831 54.9056 28.8314 56.2948 27.4422C57.685 26.0521 59.9389 26.0521 61.3291 27.4422L71.3976 37.5108C72.7878 38.9009 72.7878 41.1548 71.3976 42.545C70.0074 43.9352 67.7535 43.9352 66.3634 42.545L56.2919 32.4735Z" fill="#DD2590"/>
<path fill-rule="evenodd" clip-rule="evenodd" d="M49.5 108.5V104C49.5 102.619 50.619 101.5 52 101.5V101.5C53.381 101.5 54.5 102.619 54.5 104V108.5H60V99.914C60 99.384 59.789 98.875 59.414 98.5L52.707 91.793C52.316 91.402 51.683 91.402 51.293 91.793L44.586 98.5C44.211 98.875 44 99.384 44 99.914V108.5H49.5Z" stroke="black" stroke-width="1.5" stroke-linecap="round" stroke-linejoin="round"/>
<path d="M60.7925 153.524C61.5825 154.314 61.5825 155.594 60.7925 156.384C60.0025 157.175 58.7216 157.175 57.9315 156.384C57.1415 155.594 57.1415 154.314 57.9315 153.524C58.7216 152.733 60.0025 152.733 60.7925 153.524" stroke="black" stroke-width="1.5" stroke-linecap="round" stroke-linejoin="round"/>
<path d="M54.2026 149.912C55.4191 151.129 55.4191 153.101 54.2026 154.318C52.9861 155.534 51.0138 155.534 49.7973 154.318C48.5808 153.101 48.5808 151.129 49.7973 149.912C51.0138 148.696 52.9861 148.696 54.2026 149.912" stroke="black" stroke-width="1.5" stroke-linecap="round" stroke-linejoin="round"/>
<path d="M46.0685 153.524C46.8585 154.314 46.8585 155.594 46.0685 156.384C45.2784 157.175 43.9976 157.175 43.2075 156.384C42.4175 155.594 42.4175 154.314 43.2075 153.524C43.9976 152.733 45.2784 152.733 46.0685 153.524" stroke="black" stroke-width="1.5" stroke-linecap="round" stroke-linejoin="round"/>
<path d="M63 163V161.904C63 160.523 61.881 159.404 60.5 159.404H59.699" stroke="black" stroke-width="1.5" stroke-linecap="round" stroke-linejoin="round"/>
<path d="M41 163V161.904C41 160.523 42.119 159.404 43.5 159.404H44.301" stroke="black" stroke-width="1.5" stroke-linecap="round" stroke-linejoin="round"/>
<path d="M57.339 163V161.399C57.339 159.466 55.772 157.899 53.839 157.899H50.16C48.227 157.899 46.66 159.466 46.66 161.399V163" stroke="black" stroke-width="1.5" stroke-linecap="round" stroke-linejoin="round"/>
<path fill-rule="evenodd" clip-rule="evenodd" d="M58.414 206.414L55.586 203.586C55.211 203.211 54.702 203 54.172 203H47C45.895 203 45 203.895 45 205V219C45 220.105 45.895 221 47 221H57C58.105 221 59 220.105 59 219V207.828C59 207.298 58.789 206.789 58.414 206.414V206.414Z" stroke="black" stroke-width="1.5" stroke-linecap="round" stroke-linejoin="round"/>
<path d="M59 208H55C54.448 208 54 207.552 54 207V203" stroke="black" stroke-width="1.5" stroke-linecap="round" stroke-linejoin="round"/>
<path d="M58.383 264H59.444C60.304 264 61 264.696 61 265.556V275.445C61 276.304 60.304 277 59.444 277H48.556C47.696 277 47 276.304 47 275.444V274" stroke="black" stroke-width="1.5" stroke-linecap="round" stroke-linejoin="round"/>
<path fill-rule="evenodd" clip-rule="evenodd" d="M44.001 274H55.313C55.982 274 56.606 273.666 56.977 273.109L57.711 272.007C58.149 271.35 58.383 270.578 58.383 269.788V262C58.383 260.895 57.488 260 56.383 260H46.383C45.278 260 44.383 260.895 44.383 262V269.056C44.383 269.677 44.238 270.289 43.961 270.845L43.107 272.553C42.774 273.218 43.258 274 44.001 274Z" stroke="black" stroke-width="1.5" stroke-linecap="round" stroke-linejoin="round"/>
<path d="M48.38 259V261" stroke="black" stroke-width="1.5" stroke-linecap="round" stroke-linejoin="round"/>
<path d="M54.38 259V261" stroke="black" stroke-width="1.5" stroke-linecap="round" stroke-linejoin="round"/>
<path d="M48.19 265H54.19" stroke="black" stroke-width="1.5" stroke-linecap="round" stroke-linejoin="round"/>
<path d="M48.19 269H54.19" stroke="black" stroke-width="1.5" stroke-linecap="round" stroke-linejoin="round"/>
</svg>
