<svg width="326" height="28" viewBox="0 0 326 28" fill="none" xmlns="http://www.w3.org/2000/svg">
<circle cx="11.0586" cy="13.0586" r="7.06194" stroke="black" stroke-width="1.5" stroke-linecap="round" stroke-linejoin="round"/>
<path d="M20.0033 22.0033L16.0517 18.0517" stroke="black" stroke-width="1.5" stroke-linecap="round" stroke-linejoin="round"/>
<path d="M43.7727 11.2727C43.7045 10.697 43.428 10.25 42.9432 9.93182C42.4583 9.61364 41.8636 9.45455 41.1591 9.45455C40.6439 9.45455 40.1932 9.53788 39.8068 9.70455C39.4242 9.87121 39.125 10.1004 38.9091 10.392C38.697 10.6837 38.5909 11.0152 38.5909 11.3864C38.5909 11.697 38.6648 11.964 38.8125 12.1875C38.964 12.4072 39.1572 12.5909 39.392 12.7386C39.6269 12.8826 39.8731 13.0019 40.1307 13.0966C40.3883 13.1875 40.625 13.2614 40.8409 13.3182L42.0227 13.6364C42.3258 13.7159 42.6629 13.8258 43.0341 13.9659C43.4091 14.1061 43.767 14.2973 44.108 14.5398C44.4527 14.7784 44.7367 15.0852 44.9602 15.4602C45.1837 15.8352 45.2955 16.2955 45.2955 16.8409C45.2955 17.4697 45.1307 18.0379 44.8011 18.5455C44.4754 19.053 43.9981 19.4564 43.3693 19.7557C42.7443 20.0549 41.9848 20.2045 41.0909 20.2045C40.2576 20.2045 39.536 20.0701 38.9261 19.8011C38.3201 19.5322 37.8428 19.1572 37.4943 18.6761C37.1496 18.1951 36.9545 17.6364 36.9091 17H38.3636C38.4015 17.4394 38.5492 17.803 38.8068 18.0909C39.0682 18.375 39.3977 18.5871 39.7955 18.7273C40.197 18.8636 40.6288 18.9318 41.0909 18.9318C41.6288 18.9318 42.1117 18.8447 42.5398 18.6705C42.9678 18.4924 43.3068 18.2462 43.5568 17.9318C43.8068 17.6136 43.9318 17.2424 43.9318 16.8182C43.9318 16.4318 43.8239 16.1174 43.608 15.875C43.392 15.6326 43.108 15.4356 42.7557 15.2841C42.4034 15.1326 42.0227 15 41.6136 14.8864L40.1818 14.4773C39.2727 14.2159 38.553 13.8428 38.0227 13.358C37.4924 12.8731 37.2273 12.2386 37.2273 11.4545C37.2273 10.803 37.4034 10.2348 37.7557 9.75C38.1117 9.26136 38.589 8.88258 39.1875 8.61364C39.7898 8.34091 40.4621 8.20455 41.2045 8.20455C41.9545 8.20455 42.6212 8.33901 43.2045 8.60795C43.7879 8.87311 44.25 9.23674 44.5909 9.69886C44.9356 10.161 45.1174 10.6856 45.1364 11.2727H43.7727ZM51.0895 20.1818C50.2486 20.1818 49.5232 19.9962 48.9134 19.625C48.3073 19.25 47.8395 18.7273 47.5099 18.0568C47.1842 17.3826 47.0213 16.5985 47.0213 15.7045C47.0213 14.8106 47.1842 14.0227 47.5099 13.3409C47.8395 12.6553 48.2978 12.1212 48.8849 11.7386C49.4759 11.3523 50.1652 11.1591 50.9531 11.1591C51.4077 11.1591 51.8565 11.2348 52.2997 11.3864C52.7429 11.5379 53.1463 11.7841 53.5099 12.125C53.8736 12.4621 54.1634 12.9091 54.3793 13.4659C54.5952 14.0227 54.7031 14.7083 54.7031 15.5227V16.0909H47.9759V14.9318H53.3395C53.3395 14.4394 53.241 14 53.044 13.6136C52.8509 13.2273 52.5743 12.9223 52.2145 12.6989C51.8584 12.4754 51.438 12.3636 50.9531 12.3636C50.419 12.3636 49.9569 12.4962 49.5668 12.7614C49.1804 13.0227 48.883 13.3636 48.6747 13.7841C48.4664 14.2045 48.3622 14.6553 48.3622 15.1364V15.9091C48.3622 16.5682 48.4759 17.1269 48.7031 17.5852C48.9342 18.0398 49.2543 18.3864 49.6634 18.625C50.0724 18.8598 50.5478 18.9773 51.0895 18.9773C51.4418 18.9773 51.7599 18.928 52.044 18.8295C52.3319 18.7273 52.58 18.5758 52.7884 18.375C52.9967 18.1705 53.1577 17.9167 53.2713 17.6136L54.5668 17.9773C54.4304 18.4167 54.2012 18.803 53.8793 19.1364C53.5573 19.4659 53.1596 19.7235 52.6861 19.9091C52.2126 20.0909 51.6804 20.1818 51.0895 20.1818ZM59.3111 20.2045C58.758 20.2045 58.2562 20.1004 57.8054 19.892C57.3546 19.6799 56.9967 19.375 56.7315 18.9773C56.4664 18.5758 56.3338 18.0909 56.3338 17.5227C56.3338 17.0227 56.4323 16.6174 56.6293 16.3068C56.8262 15.9924 57.0895 15.7462 57.419 15.5682C57.7486 15.3902 58.1122 15.2576 58.5099 15.1705C58.9115 15.0795 59.3149 15.0076 59.7202 14.9545C60.2505 14.8864 60.6804 14.8352 61.0099 14.8011C61.3433 14.7633 61.5857 14.7008 61.7372 14.6136C61.8925 14.5265 61.9702 14.375 61.9702 14.1591V14.1136C61.9702 13.553 61.8168 13.1174 61.5099 12.8068C61.2069 12.4962 60.7467 12.3409 60.1293 12.3409C59.4891 12.3409 58.9872 12.4811 58.6236 12.7614C58.2599 13.0417 58.0043 13.3409 57.8565 13.6591L56.5838 13.2045C56.8111 12.6742 57.1141 12.2614 57.4929 11.9659C57.8755 11.6667 58.2921 11.4583 58.7429 11.3409C59.1974 11.2197 59.6444 11.1591 60.0838 11.1591C60.3641 11.1591 60.6861 11.1932 61.0497 11.2614C61.4171 11.3258 61.7713 11.4602 62.1122 11.6648C62.4569 11.8693 62.7429 12.178 62.9702 12.5909C63.1974 13.0038 63.3111 13.5568 63.3111 14.25V20H61.9702V18.8182H61.902C61.8111 19.0076 61.6596 19.2102 61.4474 19.4261C61.2353 19.642 60.9531 19.8258 60.6009 19.9773C60.2486 20.1288 59.8187 20.2045 59.3111 20.2045ZM59.5156 19C60.0459 19 60.4929 18.8958 60.8565 18.6875C61.224 18.4792 61.5005 18.2102 61.6861 17.8807C61.8755 17.5511 61.9702 17.2045 61.9702 16.8409V15.6136C61.9134 15.6818 61.7884 15.7443 61.5952 15.8011C61.4058 15.8542 61.1861 15.9015 60.9361 15.9432C60.6899 15.9811 60.4493 16.0152 60.2145 16.0455C59.9834 16.072 59.7959 16.0947 59.652 16.1136C59.3035 16.1591 58.9777 16.233 58.6747 16.3352C58.3755 16.4337 58.133 16.5833 57.9474 16.7841C57.7656 16.9811 57.6747 17.25 57.6747 17.5909C57.6747 18.0568 57.8471 18.4091 58.1918 18.6477C58.5402 18.8826 58.9815 19 59.5156 19ZM65.7585 20V11.2727H67.054V12.5909H67.1449C67.304 12.1591 67.5919 11.8087 68.0085 11.5398C68.4252 11.2708 68.8949 11.1364 69.4176 11.1364C69.5161 11.1364 69.6392 11.1383 69.7869 11.142C69.9347 11.1458 70.0464 11.1515 70.1222 11.1591V12.5227C70.0767 12.5114 69.9725 12.4943 69.8097 12.4716C69.6506 12.4451 69.482 12.4318 69.304 12.4318C68.8797 12.4318 68.5009 12.5208 68.1676 12.6989C67.8381 12.8731 67.5767 13.1155 67.3835 13.4261C67.1941 13.733 67.0994 14.0833 67.0994 14.4773V20H65.7585ZM74.9915 20.1818C74.1733 20.1818 73.4688 19.9886 72.8778 19.6023C72.2869 19.2159 71.8324 18.6837 71.5142 18.0057C71.196 17.3277 71.0369 16.553 71.0369 15.6818C71.0369 14.7955 71.1998 14.0133 71.5256 13.3352C71.8551 12.6534 72.3134 12.1212 72.9006 11.7386C73.4915 11.3523 74.1809 11.1591 74.9688 11.1591C75.5824 11.1591 76.1354 11.2727 76.6278 11.5C77.1203 11.7273 77.5237 12.0455 77.8381 12.4545C78.1525 12.8636 78.3475 13.3409 78.4233 13.8864H77.0824C76.9801 13.4886 76.7528 13.1364 76.4006 12.8295C76.0521 12.5189 75.5824 12.3636 74.9915 12.3636C74.4688 12.3636 74.0104 12.5 73.6165 12.7727C73.2263 13.0417 72.9214 13.4223 72.7017 13.9148C72.4858 14.4034 72.3778 14.9773 72.3778 15.6364C72.3778 16.3106 72.4839 16.8977 72.696 17.3977C72.9119 17.8977 73.215 18.286 73.6051 18.5625C73.9991 18.839 74.4612 18.9773 74.9915 18.9773C75.34 18.9773 75.6562 18.9167 75.9403 18.7955C76.2244 18.6742 76.465 18.5 76.6619 18.2727C76.8589 18.0455 76.9991 17.7727 77.0824 17.4545H78.4233C78.3475 17.9697 78.16 18.4337 77.8608 18.8466C77.5653 19.2557 77.1733 19.5814 76.6847 19.8239C76.1998 20.0625 75.6354 20.1818 74.9915 20.1818ZM81.7244 14.75V20H80.3835V8.36364H81.7244V12.6364H81.8381C82.0426 12.1856 82.3494 11.8277 82.7585 11.5625C83.1714 11.2936 83.7206 11.1591 84.4062 11.1591C85.0009 11.1591 85.5218 11.2784 85.9688 11.517C86.4157 11.7519 86.7623 12.1136 87.0085 12.6023C87.2585 13.0871 87.3835 13.7045 87.3835 14.4545V20H86.0426V14.5455C86.0426 13.8523 85.8627 13.3163 85.5028 12.9375C85.1468 12.5549 84.6525 12.3636 84.0199 12.3636C83.5805 12.3636 83.1866 12.4564 82.8381 12.642C82.4934 12.8277 82.2206 13.0985 82.0199 13.4545C81.8229 13.8106 81.7244 14.2424 81.7244 14.75ZM94.3366 20V11.2727H95.6776V20H94.3366ZM95.0185 9.81818C94.7571 9.81818 94.5317 9.72917 94.3423 9.55114C94.1567 9.37311 94.0639 9.15909 94.0639 8.90909C94.0639 8.65909 94.1567 8.44508 94.3423 8.26705C94.5317 8.08902 94.7571 8 95.0185 8C95.2798 8 95.5033 8.08902 95.6889 8.26705C95.8783 8.44508 95.973 8.65909 95.973 8.90909C95.973 9.15909 95.8783 9.37311 95.6889 9.55114C95.5033 9.72917 95.2798 9.81818 95.0185 9.81818ZM99.4744 14.75V20H98.1335V11.2727H99.429V12.6364H99.5426C99.7472 12.1932 100.058 11.8371 100.474 11.5682C100.891 11.2955 101.429 11.1591 102.088 11.1591C102.679 11.1591 103.196 11.2803 103.639 11.5227C104.082 11.7614 104.427 12.125 104.673 12.6136C104.92 13.0985 105.043 13.7121 105.043 14.4545V20H103.702V14.5455C103.702 13.8598 103.524 13.3258 103.168 12.9432C102.812 12.5568 102.323 12.3636 101.702 12.3636C101.274 12.3636 100.891 12.4564 100.554 12.642C100.221 12.8277 99.9574 13.0985 99.7642 13.4545C99.571 13.8106 99.4744 14.2424 99.4744 14.75ZM113.334 14.75V20H111.993V8.36364H113.334V12.6364H113.447C113.652 12.1856 113.959 11.8277 114.368 11.5625C114.781 11.2936 115.33 11.1591 116.016 11.1591C116.61 11.1591 117.131 11.2784 117.578 11.517C118.025 11.7519 118.372 12.1136 118.618 12.6023C118.868 13.0871 118.993 13.7045 118.993 14.4545V20H117.652V14.5455C117.652 13.8523 117.472 13.3163 117.112 12.9375C116.756 12.5549 116.262 12.3636 115.629 12.3636C115.19 12.3636 114.796 12.4564 114.447 12.642C114.103 12.8277 113.83 13.0985 113.629 13.4545C113.432 13.8106 113.334 14.2424 113.334 14.75ZM124.991 20.1818C124.204 20.1818 123.512 19.9943 122.918 19.6193C122.327 19.2443 121.865 18.7197 121.531 18.0455C121.202 17.3712 121.037 16.5833 121.037 15.6818C121.037 14.7727 121.202 13.9792 121.531 13.3011C121.865 12.6231 122.327 12.0966 122.918 11.7216C123.512 11.3466 124.204 11.1591 124.991 11.1591C125.779 11.1591 126.469 11.3466 127.06 11.7216C127.654 12.0966 128.116 12.6231 128.446 13.3011C128.779 13.9792 128.946 14.7727 128.946 15.6818C128.946 16.5833 128.779 17.3712 128.446 18.0455C128.116 18.7197 127.654 19.2443 127.06 19.6193C126.469 19.9943 125.779 20.1818 124.991 20.1818ZM124.991 18.9773C125.59 18.9773 126.082 18.8239 126.469 18.517C126.855 18.2102 127.141 17.8068 127.327 17.3068C127.512 16.8068 127.605 16.2652 127.605 15.6818C127.605 15.0985 127.512 14.5549 127.327 14.0511C127.141 13.5473 126.855 13.1402 126.469 12.8295C126.082 12.5189 125.59 12.3636 124.991 12.3636C124.393 12.3636 123.901 12.5189 123.514 12.8295C123.128 13.1402 122.842 13.5473 122.656 14.0511C122.471 14.5549 122.378 15.0985 122.378 15.6818C122.378 16.2652 122.471 16.8068 122.656 17.3068C122.842 17.8068 123.128 18.2102 123.514 18.517C123.901 18.8239 124.393 18.9773 124.991 18.9773ZM130.993 20V11.2727H132.288V12.6364H132.402C132.584 12.1705 132.877 11.8087 133.283 11.5511C133.688 11.2898 134.175 11.1591 134.743 11.1591C135.319 11.1591 135.798 11.2898 136.18 11.5511C136.567 11.8087 136.868 12.1705 137.084 12.6364H137.175C137.398 12.1856 137.733 11.8277 138.18 11.5625C138.627 11.2936 139.163 11.1591 139.788 11.1591C140.569 11.1591 141.207 11.4034 141.703 11.892C142.199 12.3769 142.447 13.1326 142.447 14.1591V20H141.107V14.1591C141.107 13.5152 140.93 13.0549 140.578 12.7784C140.226 12.5019 139.811 12.3636 139.334 12.3636C138.72 12.3636 138.245 12.5492 137.908 12.9205C137.571 13.2879 137.402 13.7538 137.402 14.3182V20H136.038V14.0227C136.038 13.5265 135.877 13.1269 135.555 12.8239C135.233 12.517 134.819 12.3636 134.311 12.3636C133.963 12.3636 133.637 12.4564 133.334 12.642C133.035 12.8277 132.792 13.0852 132.607 13.4148C132.425 13.7405 132.334 14.1174 132.334 14.5455V20H130.993ZM148.558 20.1818C147.717 20.1818 146.992 19.9962 146.382 19.625C145.776 19.25 145.308 18.7273 144.979 18.0568C144.653 17.3826 144.49 16.5985 144.49 15.7045C144.49 14.8106 144.653 14.0227 144.979 13.3409C145.308 12.6553 145.767 12.1212 146.354 11.7386C146.945 11.3523 147.634 11.1591 148.422 11.1591C148.876 11.1591 149.325 11.2348 149.768 11.3864C150.212 11.5379 150.615 11.7841 150.979 12.125C151.342 12.4621 151.632 12.9091 151.848 13.4659C152.064 14.0227 152.172 14.7083 152.172 15.5227V16.0909H145.445V14.9318H150.808C150.808 14.4394 150.71 14 150.513 13.6136C150.32 13.2273 150.043 12.9223 149.683 12.6989C149.327 12.4754 148.907 12.3636 148.422 12.3636C147.888 12.3636 147.426 12.4962 147.036 12.7614C146.649 13.0227 146.352 13.3636 146.143 13.7841C145.935 14.2045 145.831 14.6553 145.831 15.1364V15.9091C145.831 16.5682 145.945 17.1269 146.172 17.5852C146.403 18.0398 146.723 18.3864 147.132 18.625C147.541 18.8598 148.017 18.9773 148.558 18.9773C148.911 18.9773 149.229 18.928 149.513 18.8295C149.801 18.7273 150.049 18.5758 150.257 18.375C150.465 18.1705 150.626 17.9167 150.74 17.6136L152.036 17.9773C151.899 18.4167 151.67 18.803 151.348 19.1364C151.026 19.4659 150.628 19.7235 150.155 19.9091C149.681 20.0909 149.149 20.1818 148.558 20.1818ZM160.393 13.2273L159.189 13.5682C159.113 13.3674 159.001 13.1723 158.854 12.983C158.71 12.7898 158.513 12.6307 158.263 12.5057C158.013 12.3807 157.693 12.3182 157.303 12.3182C156.768 12.3182 156.323 12.4413 155.967 12.6875C155.615 12.9299 155.439 13.2386 155.439 13.6136C155.439 13.947 155.56 14.2102 155.803 14.4034C156.045 14.5966 156.424 14.7576 156.939 14.8864L158.234 15.2045C159.015 15.3939 159.596 15.6837 159.979 16.0739C160.361 16.4602 160.553 16.9583 160.553 17.5682C160.553 18.0682 160.409 18.5152 160.121 18.9091C159.837 19.303 159.439 19.6136 158.928 19.8409C158.416 20.0682 157.821 20.1818 157.143 20.1818C156.253 20.1818 155.517 19.9886 154.933 19.6023C154.35 19.2159 153.981 18.6515 153.825 17.9091L155.098 17.5909C155.219 18.0606 155.448 18.4129 155.786 18.6477C156.126 18.8826 156.571 19 157.121 19C157.746 19 158.242 18.8674 158.609 18.6023C158.981 18.3333 159.166 18.0114 159.166 17.6364C159.166 17.3333 159.06 17.0795 158.848 16.875C158.636 16.6667 158.31 16.5114 157.871 16.4091L156.416 16.0682C155.617 15.8788 155.03 15.5852 154.655 15.1875C154.284 14.786 154.098 14.2841 154.098 13.6818C154.098 13.1894 154.236 12.7538 154.513 12.375C154.793 11.9962 155.174 11.6989 155.655 11.483C156.14 11.267 156.689 11.1591 157.303 11.1591C158.166 11.1591 158.844 11.3485 159.337 11.7273C159.833 12.1061 160.185 12.6061 160.393 13.2273ZM164.571 18.4091L164.48 19.0227C164.416 19.4545 164.317 19.9167 164.185 20.4091C164.056 20.9015 163.921 21.3655 163.781 21.8011C163.641 22.2367 163.526 22.5833 163.435 22.8409H162.412C162.461 22.5985 162.526 22.2784 162.605 21.8807C162.685 21.483 162.764 21.0379 162.844 20.5455C162.927 20.0568 162.995 19.5568 163.048 19.0455L163.116 18.4091H164.571ZM172.214 20H170.737L175.01 8.36364H176.464L180.737 20H179.26L175.783 10.2045H175.692L172.214 20ZM172.76 15.4545H178.714V16.7045H172.76V15.4545ZM182.368 23.2727V11.2727H183.663V12.6591H183.822C183.921 12.5076 184.057 12.3144 184.232 12.0795C184.41 11.8409 184.663 11.6288 184.993 11.4432C185.326 11.2538 185.777 11.1591 186.345 11.1591C187.08 11.1591 187.728 11.3428 188.288 11.7102C188.849 12.0777 189.286 12.5985 189.601 13.2727C189.915 13.947 190.072 14.7424 190.072 15.6591C190.072 16.5833 189.915 17.3845 189.601 18.0625C189.286 18.7367 188.851 19.2595 188.294 19.6307C187.737 19.9981 187.095 20.1818 186.368 20.1818C185.807 20.1818 185.358 20.089 185.021 19.9034C184.684 19.714 184.425 19.5 184.243 19.2614C184.061 19.0189 183.921 18.8182 183.822 18.6591H183.709V23.2727H182.368ZM183.686 15.6364C183.686 16.2955 183.783 16.8769 183.976 17.3807C184.169 17.8807 184.451 18.2727 184.822 18.5568C185.194 18.8371 185.648 18.9773 186.186 18.9773C186.747 18.9773 187.214 18.8295 187.589 18.5341C187.968 18.2348 188.252 17.8333 188.442 17.3295C188.635 16.822 188.732 16.2576 188.732 15.6364C188.732 15.0227 188.637 14.4697 188.447 13.9773C188.262 13.4811 187.98 13.089 187.601 12.8011C187.226 12.5095 186.754 12.3636 186.186 12.3636C185.641 12.3636 185.182 12.5019 184.811 12.7784C184.44 13.0511 184.16 13.4337 183.97 13.9261C183.781 14.4148 183.686 14.9848 183.686 15.6364ZM194.686 20.2045C194.133 20.2045 193.631 20.1004 193.18 19.892C192.73 19.6799 192.372 19.375 192.107 18.9773C191.841 18.5758 191.709 18.0909 191.709 17.5227C191.709 17.0227 191.807 16.6174 192.004 16.3068C192.201 15.9924 192.464 15.7462 192.794 15.5682C193.124 15.3902 193.487 15.2576 193.885 15.1705C194.286 15.0795 194.69 15.0076 195.095 14.9545C195.625 14.8864 196.055 14.8352 196.385 14.8011C196.718 14.7633 196.961 14.7008 197.112 14.6136C197.268 14.5265 197.345 14.375 197.345 14.1591V14.1136C197.345 13.553 197.192 13.1174 196.885 12.8068C196.582 12.4962 196.122 12.3409 195.504 12.3409C194.864 12.3409 194.362 12.4811 193.999 12.7614C193.635 13.0417 193.379 13.3409 193.232 13.6591L191.959 13.2045C192.186 12.6742 192.489 12.2614 192.868 11.9659C193.25 11.6667 193.667 11.4583 194.118 11.3409C194.572 11.2197 195.019 11.1591 195.459 11.1591C195.739 11.1591 196.061 11.1932 196.425 11.2614C196.792 11.3258 197.146 11.4602 197.487 11.6648C197.832 11.8693 198.118 12.178 198.345 12.5909C198.572 13.0038 198.686 13.5568 198.686 14.25V20H197.345V18.8182H197.277C197.186 19.0076 197.035 19.2102 196.822 19.4261C196.61 19.642 196.328 19.8258 195.976 19.9773C195.624 20.1288 195.194 20.2045 194.686 20.2045ZM194.891 19C195.421 19 195.868 18.8958 196.232 18.6875C196.599 18.4792 196.875 18.2102 197.061 17.8807C197.25 17.5511 197.345 17.2045 197.345 16.8409V15.6136C197.288 15.6818 197.163 15.7443 196.97 15.8011C196.781 15.8542 196.561 15.9015 196.311 15.9432C196.065 15.9811 195.824 16.0152 195.589 16.0455C195.358 16.072 195.171 16.0947 195.027 16.1136C194.679 16.1591 194.353 16.233 194.05 16.3352C193.75 16.4337 193.508 16.5833 193.322 16.7841C193.141 16.9811 193.05 17.25 193.05 17.5909C193.05 18.0568 193.222 18.4091 193.567 18.6477C193.915 18.8826 194.357 19 194.891 19ZM201.134 20V11.2727H202.429V12.5909H202.52C202.679 12.1591 202.967 11.8087 203.384 11.5398C203.8 11.2708 204.27 11.1364 204.793 11.1364C204.891 11.1364 205.014 11.1383 205.162 11.142C205.31 11.1458 205.421 11.1515 205.497 11.1591V12.5227C205.452 12.5114 205.348 12.4943 205.185 12.4716C205.026 12.4451 204.857 12.4318 204.679 12.4318C204.255 12.4318 203.876 12.5208 203.543 12.6989C203.213 12.8731 202.952 13.1155 202.759 13.4261C202.569 13.733 202.474 14.0833 202.474 14.4773V20H201.134ZM211.429 11.2727V12.4091H206.906V11.2727H211.429ZM208.224 9.18182H209.565V17.5C209.565 17.8788 209.62 18.1629 209.73 18.3523C209.844 18.5379 209.988 18.6629 210.162 18.7273C210.34 18.7879 210.527 18.8182 210.724 18.8182C210.872 18.8182 210.993 18.8106 211.088 18.7955C211.183 18.7765 211.259 18.7614 211.315 18.75L211.588 19.9545C211.497 19.9886 211.37 20.0227 211.207 20.0568C211.045 20.0947 210.838 20.1136 210.588 20.1136C210.209 20.1136 209.838 20.0322 209.474 19.8693C209.115 19.7064 208.815 19.4583 208.577 19.125C208.342 18.7917 208.224 18.3712 208.224 17.8636V9.18182ZM213.446 20V11.2727H214.741V12.6364H214.855C215.037 12.1705 215.33 11.8087 215.736 11.5511C216.141 11.2898 216.628 11.1591 217.196 11.1591C217.772 11.1591 218.251 11.2898 218.634 11.5511C219.02 11.8087 219.321 12.1705 219.537 12.6364H219.628C219.851 12.1856 220.187 11.8277 220.634 11.5625C221.08 11.2936 221.616 11.1591 222.241 11.1591C223.022 11.1591 223.66 11.4034 224.156 11.892C224.652 12.3769 224.901 13.1326 224.901 14.1591V20H223.56V14.1591C223.56 13.5152 223.384 13.0549 223.031 12.7784C222.679 12.5019 222.264 12.3636 221.787 12.3636C221.173 12.3636 220.698 12.5492 220.361 12.9205C220.024 13.2879 219.855 13.7538 219.855 14.3182V20H218.491V14.0227C218.491 13.5265 218.33 13.1269 218.009 12.8239C217.687 12.517 217.272 12.3636 216.764 12.3636C216.416 12.3636 216.09 12.4564 215.787 12.642C215.488 12.8277 215.245 13.0852 215.06 13.4148C214.878 13.7405 214.787 14.1174 214.787 14.5455V20H213.446ZM231.011 20.1818C230.17 20.1818 229.445 19.9962 228.835 19.625C228.229 19.25 227.761 18.7273 227.432 18.0568C227.106 17.3826 226.943 16.5985 226.943 15.7045C226.943 14.8106 227.106 14.0227 227.432 13.3409C227.761 12.6553 228.22 12.1212 228.807 11.7386C229.398 11.3523 230.087 11.1591 230.875 11.1591C231.33 11.1591 231.778 11.2348 232.222 11.3864C232.665 11.5379 233.068 11.7841 233.432 12.125C233.795 12.4621 234.085 12.9091 234.301 13.4659C234.517 14.0227 234.625 14.7083 234.625 15.5227V16.0909H227.898V14.9318H233.261C233.261 14.4394 233.163 14 232.966 13.6136C232.773 13.2273 232.496 12.9223 232.136 12.6989C231.78 12.4754 231.36 12.3636 230.875 12.3636C230.341 12.3636 229.879 12.4962 229.489 12.7614C229.102 13.0227 228.805 13.3636 228.597 13.7841C228.388 14.2045 228.284 14.6553 228.284 15.1364V15.9091C228.284 16.5682 228.398 17.1269 228.625 17.5852C228.856 18.0398 229.176 18.3864 229.585 18.625C229.994 18.8598 230.47 18.9773 231.011 18.9773C231.364 18.9773 231.682 18.928 231.966 18.8295C232.254 18.7273 232.502 18.5758 232.71 18.375C232.919 18.1705 233.08 17.9167 233.193 17.6136L234.489 17.9773C234.352 18.4167 234.123 18.803 233.801 19.1364C233.479 19.4659 233.081 19.7235 232.608 19.9091C232.134 20.0909 231.602 20.1818 231.011 20.1818ZM238.006 14.75V20H236.665V11.2727H237.96V12.6364H238.074C238.278 12.1932 238.589 11.8371 239.006 11.5682C239.422 11.2955 239.96 11.1591 240.619 11.1591C241.21 11.1591 241.727 11.2803 242.17 11.5227C242.614 11.7614 242.958 12.125 243.205 12.6136C243.451 13.0985 243.574 13.7121 243.574 14.4545V20H242.233V14.5455C242.233 13.8598 242.055 13.3258 241.699 12.9432C241.343 12.5568 240.854 12.3636 240.233 12.3636C239.805 12.3636 239.422 12.4564 239.085 12.642C238.752 12.8277 238.489 13.0985 238.295 13.4545C238.102 13.8106 238.006 14.2424 238.006 14.75ZM249.82 11.2727V12.4091H245.297V11.2727H249.82ZM246.615 9.18182H247.956V17.5C247.956 17.8788 248.011 18.1629 248.121 18.3523C248.234 18.5379 248.378 18.6629 248.553 18.7273C248.731 18.7879 248.918 18.8182 249.115 18.8182C249.263 18.8182 249.384 18.8106 249.479 18.7955C249.573 18.7765 249.649 18.7614 249.706 18.75L249.979 19.9545C249.888 19.9886 249.761 20.0227 249.598 20.0568C249.435 20.0947 249.229 20.1136 248.979 20.1136C248.6 20.1136 248.229 20.0322 247.865 19.8693C247.505 19.7064 247.206 19.4583 246.967 19.125C246.732 18.7917 246.615 18.3712 246.615 17.8636V9.18182ZM257.862 13.2273L256.658 13.5682C256.582 13.3674 256.47 13.1723 256.322 12.983C256.179 12.7898 255.982 12.6307 255.732 12.5057C255.482 12.3807 255.161 12.3182 254.771 12.3182C254.237 12.3182 253.792 12.4413 253.436 12.6875C253.084 12.9299 252.908 13.2386 252.908 13.6136C252.908 13.947 253.029 14.2102 253.271 14.4034C253.514 14.5966 253.893 14.7576 254.408 14.8864L255.703 15.2045C256.483 15.3939 257.065 15.6837 257.447 16.0739C257.83 16.4602 258.021 16.9583 258.021 17.5682C258.021 18.0682 257.877 18.5152 257.589 18.9091C257.305 19.303 256.908 19.6136 256.396 19.8409C255.885 20.0682 255.29 20.1818 254.612 20.1818C253.722 20.1818 252.985 19.9886 252.402 19.6023C251.819 19.2159 251.449 18.6515 251.294 17.9091L252.567 17.5909C252.688 18.0606 252.917 18.4129 253.254 18.6477C253.595 18.8826 254.04 19 254.589 19C255.214 19 255.711 18.8674 256.078 18.6023C256.449 18.3333 256.635 18.0114 256.635 17.6364C256.635 17.3333 256.529 17.0795 256.317 16.875C256.105 16.6667 255.779 16.5114 255.339 16.4091L253.885 16.0682C253.086 15.8788 252.499 15.5852 252.124 15.1875C251.752 14.786 251.567 14.2841 251.567 13.6818C251.567 13.1894 251.705 12.7538 251.982 12.375C252.262 11.9962 252.643 11.6989 253.124 11.483C253.608 11.267 254.158 11.1591 254.771 11.1591C255.635 11.1591 256.313 11.3485 256.805 11.7273C257.302 12.1061 257.654 12.6061 257.862 13.2273ZM262.04 18.4091L261.949 19.0227C261.884 19.4545 261.786 19.9167 261.653 20.4091C261.525 20.9015 261.39 21.3655 261.25 21.8011C261.11 22.2367 260.994 22.5833 260.903 22.8409H259.881C259.93 22.5985 259.994 22.2784 260.074 21.8807C260.153 21.483 260.233 21.0379 260.312 20.5455C260.396 20.0568 260.464 19.5568 260.517 19.0455L260.585 18.4091H262.04ZM269.683 8.36364L273.138 18.1591H273.274L276.729 8.36364H278.206L273.933 20H272.479L268.206 8.36364H269.683ZM279.837 20V11.2727H281.178V20H279.837ZM280.518 9.81818C280.257 9.81818 280.032 9.72917 279.842 9.55114C279.657 9.37311 279.564 9.15909 279.564 8.90909C279.564 8.65909 279.657 8.44508 279.842 8.26705C280.032 8.08902 280.257 8 280.518 8C280.78 8 281.003 8.08902 281.189 8.26705C281.378 8.44508 281.473 8.65909 281.473 8.90909C281.473 9.15909 281.378 9.37311 281.189 9.55114C281.003 9.72917 280.78 9.81818 280.518 9.81818ZM284.974 8.36364V20H283.634V8.36364H284.974ZM288.771 8.36364V20H287.43V8.36364H288.771ZM293.795 20.2045C293.242 20.2045 292.741 20.1004 292.29 19.892C291.839 19.6799 291.481 19.375 291.216 18.9773C290.951 18.5758 290.818 18.0909 290.818 17.5227C290.818 17.0227 290.917 16.6174 291.114 16.3068C291.311 15.9924 291.574 15.7462 291.903 15.5682C292.233 15.3902 292.597 15.2576 292.994 15.1705C293.396 15.0795 293.799 15.0076 294.205 14.9545C294.735 14.8864 295.165 14.8352 295.494 14.8011C295.828 14.7633 296.07 14.7008 296.222 14.6136C296.377 14.5265 296.455 14.375 296.455 14.1591V14.1136C296.455 13.553 296.301 13.1174 295.994 12.8068C295.691 12.4962 295.231 12.3409 294.614 12.3409C293.973 12.3409 293.472 12.4811 293.108 12.7614C292.744 13.0417 292.489 13.3409 292.341 13.6591L291.068 13.2045C291.295 12.6742 291.598 12.2614 291.977 11.9659C292.36 11.6667 292.777 11.4583 293.227 11.3409C293.682 11.2197 294.129 11.1591 294.568 11.1591C294.848 11.1591 295.17 11.1932 295.534 11.2614C295.902 11.3258 296.256 11.4602 296.597 11.6648C296.941 11.8693 297.227 12.178 297.455 12.5909C297.682 13.0038 297.795 13.5568 297.795 14.25V20H296.455V18.8182H296.386C296.295 19.0076 296.144 19.2102 295.932 19.4261C295.72 19.642 295.438 19.8258 295.085 19.9773C294.733 20.1288 294.303 20.2045 293.795 20.2045ZM294 19C294.53 19 294.977 18.8958 295.341 18.6875C295.708 18.4792 295.985 18.2102 296.17 17.8807C296.36 17.5511 296.455 17.2045 296.455 16.8409V15.6136C296.398 15.6818 296.273 15.7443 296.08 15.8011C295.89 15.8542 295.67 15.9015 295.42 15.9432C295.174 15.9811 294.934 16.0152 294.699 16.0455C294.468 16.072 294.28 16.0947 294.136 16.1136C293.788 16.1591 293.462 16.233 293.159 16.3352C292.86 16.4337 292.617 16.5833 292.432 16.7841C292.25 16.9811 292.159 17.25 292.159 17.5909C292.159 18.0568 292.331 18.4091 292.676 18.6477C293.025 18.8826 293.466 19 294 19ZM306.425 13.2273L305.22 13.5682C305.144 13.3674 305.033 13.1723 304.885 12.983C304.741 12.7898 304.544 12.6307 304.294 12.5057C304.044 12.3807 303.724 12.3182 303.334 12.3182C302.8 12.3182 302.355 12.4413 301.999 12.6875C301.646 12.9299 301.47 13.2386 301.47 13.6136C301.47 13.947 301.591 14.2102 301.834 14.4034C302.076 14.5966 302.455 14.7576 302.97 14.8864L304.266 15.2045C305.046 15.3939 305.627 15.6837 306.01 16.0739C306.393 16.4602 306.584 16.9583 306.584 17.5682C306.584 18.0682 306.44 18.5152 306.152 18.9091C305.868 19.303 305.47 19.6136 304.959 19.8409C304.447 20.0682 303.853 20.1818 303.175 20.1818C302.285 20.1818 301.548 19.9886 300.964 19.6023C300.381 19.2159 300.012 18.6515 299.857 17.9091L301.129 17.5909C301.25 18.0606 301.48 18.4129 301.817 18.6477C302.158 18.8826 302.603 19 303.152 19C303.777 19 304.273 18.8674 304.641 18.6023C305.012 18.3333 305.197 18.0114 305.197 17.6364C305.197 17.3333 305.091 17.0795 304.879 16.875C304.667 16.6667 304.341 16.5114 303.902 16.4091L302.447 16.0682C301.648 15.8788 301.061 15.5852 300.686 15.1875C300.315 14.786 300.129 14.2841 300.129 13.6818C300.129 13.1894 300.268 12.7538 300.544 12.375C300.824 11.9962 301.205 11.6989 301.686 11.483C302.171 11.267 302.72 11.1591 303.334 11.1591C304.197 11.1591 304.875 11.3485 305.368 11.7273C305.864 12.1061 306.216 12.6061 306.425 13.2273ZM310.602 18.4091L310.511 19.0227C310.447 19.4545 310.348 19.9167 310.216 20.4091C310.087 20.9015 309.953 21.3655 309.812 21.8011C309.672 22.2367 309.557 22.5833 309.466 22.8409H308.443C308.492 22.5985 308.557 22.2784 308.636 21.8807C308.716 21.483 308.795 21.0379 308.875 20.5455C308.958 20.0568 309.027 19.5568 309.08 19.0455L309.148 18.4091H310.602ZM314.064 20.0909C313.784 20.0909 313.543 19.9905 313.342 19.7898C313.142 19.589 313.041 19.3485 313.041 19.0682C313.041 18.7879 313.142 18.5473 313.342 18.3466C313.543 18.1458 313.784 18.0455 314.064 18.0455C314.344 18.0455 314.585 18.1458 314.786 18.3466C314.986 18.5473 315.087 18.7879 315.087 19.0682C315.087 19.2538 315.039 19.4242 314.945 19.5795C314.854 19.7348 314.731 19.8598 314.575 19.9545C314.424 20.0455 314.253 20.0909 314.064 20.0909ZM318.47 20.0909C318.19 20.0909 317.949 19.9905 317.749 19.7898C317.548 19.589 317.447 19.3485 317.447 19.0682C317.447 18.7879 317.548 18.5473 317.749 18.3466C317.949 18.1458 318.19 18.0455 318.47 18.0455C318.75 18.0455 318.991 18.1458 319.192 18.3466C319.393 18.5473 319.493 18.7879 319.493 19.0682C319.493 19.2538 319.446 19.4242 319.351 19.5795C319.26 19.7348 319.137 19.8598 318.982 19.9545C318.83 20.0455 318.66 20.0909 318.47 20.0909ZM322.876 20.0909C322.596 20.0909 322.356 19.9905 322.155 19.7898C321.954 19.589 321.854 19.3485 321.854 19.0682C321.854 18.7879 321.954 18.5473 322.155 18.3466C322.356 18.1458 322.596 18.0455 322.876 18.0455C323.157 18.0455 323.397 18.1458 323.598 18.3466C323.799 18.5473 323.899 18.7879 323.899 19.0682C323.899 19.2538 323.852 19.4242 323.757 19.5795C323.666 19.7348 323.543 19.8598 323.388 19.9545C323.236 20.0455 323.066 20.0909 322.876 20.0909Z" fill="black"/>
</svg>
